<?xml version="1.0" encoding="utf-8"?>
<svg version="1.1" xmlns:xlink="http://www.w3.org/1999/xlink" width="26px" height="26px" xmlns="http://www.w3.org/2000/svg">
  <g transform="matrix(1 0 0 1 -680 -329 )">
    <path d="M 693 329  C 700.28 329  706 334.72  706 342  C 706 349.28  700.28 355  693 355  C 685.72 355  680 349.28  680 342  C 680 334.72  685.72 329  693 329  Z " fill-rule="nonzero" fill="#ffffff" stroke="none" />
    <path d="M 693 329.5  C 700 329.5  705.5 335  705.5 342  C 705.5 349  700 354.5  693 354.5  C 686 354.5  680.5 349  680.5 342  C 680.5 335  686 329.5  693 329.5  Z " stroke-width="1" stroke="#797979" fill="none" />
  </g>
</svg>