<?xml version="1.0" encoding="utf-8"?>
<svg version="1.1" xmlns:xlink="http://www.w3.org/1999/xlink" width="250px" height="250px" xmlns="http://www.w3.org/2000/svg">
  <g transform="matrix(1 0 0 1 -357 -721 )">
    <path d="M 357 721  L 607 721  L 607 971  L 357 971  L 357 721  " fill-rule="nonzero" fill="#cccccc" stroke="none" />
    <path d="M 375 739  L 589 739  L 589 953  L 375 953  L 375 739  " fill-rule="nonzero" fill="#ffffff" stroke="none" />
    <path d="M 505.75 796  C 495.25 796  487 787.75  487 777.25  C 487 766.75  495.25 758.5  505.75 758.5  C 516.25 758.5  524.5 766.75  524.5 777.25  C 524.5 787.75  516.25 796  505.75 796  " fill-rule="nonzero" fill="#cccccc" stroke="none" />
    <path d="M 382 947  L 382 836.45  L 432.25 786.2  L 502.6 826.4  L 542.8 816.35  L 583 826.4  L 583 947  L 382 947  " fill-rule="nonzero" fill="#169bd5" stroke="none" />
  </g>
</svg>